<svg width="402" height="131" viewBox="0 0 402 131" fill="none" xmlns="http://www.w3.org/2000/svg">
<path d="M138.694 49.9105L129.804 82.2918H120.09L117.087 71.3999L114.732 58.2708H113.613L111.258 71.3999L108.256 82.2918H98.5414L89.6512 49.9105H98.0115L100.72 60.0959L103.605 73.1073L106.431 60.0959L109.139 49.9105H119.207L121.915 60.0959L124.741 72.9895L127.626 60.0959L130.334 49.9105H138.694Z" fill="#1F024C"/>
<path d="M172.124 68.2795H147.279C147.809 73.4605 151.341 76.051 155.698 76.051C158.936 76.051 161.762 74.5791 162.881 71.9886H171.594C169.181 79.6424 162.704 82.9982 155.757 82.9982C145.63 82.9982 138.683 75.8155 138.683 66.1599C138.683 56.5044 145.689 49.2039 155.58 49.2039C166.296 49.2039 172.949 57.6231 172.124 68.2795ZM147.691 62.0976H163.175C162.233 58.5651 159.584 56.1512 155.522 56.1512C151.459 56.1512 148.751 58.6239 147.691 62.0976Z" fill="#1F024C"/>
<path d="M209.323 66.1011C209.323 76.051 202.964 82.9982 194.545 82.9982C189.953 82.9982 186.597 80.9965 184.301 77.935V97.0105H175.882V49.9104H184.301V54.4438C186.538 51.3234 190.012 49.2039 194.545 49.2039C202.847 49.2039 209.323 56.0923 209.323 66.1011ZM200.786 66.1011C200.786 60.8023 197.312 57.2109 192.602 57.2109C187.892 57.2109 184.301 60.8023 184.301 66.1011C184.301 71.3998 187.892 74.9912 192.602 74.9912C197.312 74.9912 200.786 71.4587 200.786 66.1011Z" fill="#1F024C"/>
<path d="M245.933 66.1011C245.933 75.8743 238.514 82.9982 229.036 82.9982C219.557 82.9982 212.197 75.8155 212.197 66.1011C212.197 56.3867 219.733 49.2039 229.036 49.2039C238.338 49.2039 245.933 56.3278 245.933 66.1011ZM220.675 66.1011C220.675 71.4587 224.326 74.9912 229.036 74.9912C233.746 74.9912 237.396 71.4587 237.396 66.1011C237.396 60.7434 233.746 57.2109 229.036 57.2109C224.326 57.2109 220.675 60.8023 220.675 66.1011Z" fill="#1F024C"/>
<path d="M248.807 66.1011C248.807 56.5044 255.931 49.2039 265.704 49.2039C273.593 49.2039 280.599 53.9728 281.836 62.2153H273.181C272.18 58.6828 269.119 56.9754 265.704 56.9754C260.582 56.9754 257.285 60.7434 257.344 66.1011C257.285 71.5176 260.7 75.2267 265.645 75.2267C269.119 75.2267 272.18 73.4605 273.181 69.928H281.836C280.54 78.4649 273.417 82.9982 265.645 82.9982C255.931 82.9982 248.807 75.6977 248.807 66.1011Z" fill="#1F024C"/>
<path d="M306.37 82.2917L293.123 68.1617V82.2917H284.704V36.9579H293.123V63.3928L305.428 49.9104H316.144L301.366 65.3357L317.145 82.2917H306.37Z" fill="#1F024C"/>
<path d="M347.326 68.2795H322.481C323.011 73.4605 326.543 76.051 330.9 76.051C334.138 76.051 336.964 74.5791 338.083 71.9886H346.796C344.382 79.6424 337.906 82.9982 330.959 82.9982C320.832 82.9982 313.885 75.8155 313.885 66.1599C313.885 56.5044 320.891 49.2039 330.782 49.2039C341.497 49.2039 348.15 57.6231 347.326 68.2795ZM322.893 62.0976H338.377C337.435 58.5651 334.786 56.1512 330.723 56.1512C326.661 56.1512 323.953 58.6239 322.893 62.0976Z" fill="#1F024C"/>
<path d="M372 80.4077C370.234 81.5852 366.23 82.9982 362.345 82.9982C355.868 82.9982 350.216 79.1125 350.216 69.8102V42.9043L358.635 41.0791V49.9104H370.646V57.8585H358.635V69.3392C358.635 73.1661 360.461 75.1678 363.816 75.1678C365.7 75.1678 367.938 74.5202 370.587 73.5782L372 80.4077Z" fill="#1F024C"/>
<path d="M77.1538 41.4859V81.6227C77.1538 85.2248 74.9968 88.479 71.673 89.8813L45.8857 100.752V82.5647L61.2736 76.0777V48.1763L77.1538 41.4806V41.4859Z" fill="#02428E"/>
<path d="M61.268 30V48.1871L45.8802 54.674V82.5755L30 89.2712V49.1344C30 45.5323 32.157 42.2781 35.4807 40.8758L61.268 30.0054V30Z" fill="#1C75F7"/>
</svg>
